<svg width="40" height="40" viewBox="0 0 40 40" fill="none" xmlns="http://www.w3.org/2000/svg">
<path d="M19.9999 1.66667C23.5322 1.67055 26.9187 3.07543 29.4166 5.57308C31.9144 8.07073 33.3194 11.4572 33.3234 14.9895C33.3234 25.5322 20.1367 37.5158 19.9999 37.6395C19.8666 37.5198 6.6775 25.5352 6.6775 14.9905C6.6812 11.4582 8.08597 8.07155 10.5836 5.57368C13.0812 3.07583 16.4677 1.67073 19.9999 1.66667ZM19.9999 0C16.0259 0.0045875 12.216 1.58531 9.40588 4.39538C6.5958 7.20547 5.01508 11.0154 5.0105 14.9895C5.0105 26.2605 18.3186 38.3683 18.8851 38.8778L19.9999 39.8812L21.1147 38.8778C21.6814 38.3683 34.9901 26.2612 34.9901 14.9895C34.9854 11.0154 33.4046 7.20537 30.5944 4.3953C27.7843 1.58523 23.9741 0.00454315 19.9999 0Z" fill="#BC9C5F"/>
<path d="M19.9999 11.0834C20.7746 11.0834 21.5317 11.3131 22.1759 11.7435C22.8199 12.1738 23.3221 12.7855 23.6184 13.5012C23.9149 14.2169 23.9924 15.0044 23.8412 15.7641C23.6902 16.5239 23.3172 17.2217 22.7694 17.7695C22.2216 18.3174 21.5237 18.6904 20.7641 18.8414C20.0042 18.9925 19.2167 18.915 18.5011 18.6185C17.7854 18.3222 17.1737 17.82 16.7432 17.176C16.313 16.5319 16.0832 15.7747 16.0832 15C16.0844 13.9616 16.4975 12.9661 17.2317 12.2319C17.9659 11.4976 18.9616 11.0846 19.9999 11.0834ZM19.9999 9.58337C18.9286 9.58337 17.8814 9.90106 16.9906 10.4962C16.0998 11.0914 15.4055 11.9374 14.9956 12.9272C14.5856 13.9169 14.4783 15.0061 14.6873 16.0568C14.8963 17.1075 15.4122 18.0727 16.1698 18.8302C16.9272 19.5877 17.8924 20.1037 18.9432 20.3127C19.9939 20.5217 21.0831 20.4144 22.0727 20.0044C23.0626 19.5944 23.9086 18.9002 24.5037 18.0094C25.0989 17.1185 25.4166 16.0714 25.4166 15C25.4166 13.5635 24.8459 12.1857 23.8301 11.1699C22.8142 10.1541 21.4366 9.58337 19.9999 9.58337Z" fill="#231F20"/>
</svg>
